<svg width="40" height="32" viewBox="0 0 40 32" fill="none" xmlns="http://www.w3.org/2000/svg">
<path d="M16.7164 1.07463H22.0895C22.4192 1.07463 22.6865 1.34192 22.6865 1.67164V30.4776C22.6865 30.8075 22.4192 31.0746 22.0895 31.0746H17.3134C16.9837 31.0746 16.7164 30.8075 16.7164 30.4776V8.31343L6.56712 15.5336V17.9403V30.4776C6.56712 30.8075 6.29983 31.0746 5.9701 31.0746H0.895477C0.565754 31.0746 0.298462 30.8075 0.298462 30.4776V1.67164C0.298462 1.34192 0.565754 1.07463 0.895477 1.07463H6.56712L10.1492 5.75857L16.7164 1.07463Z" fill="white"/>
<path d="M16.7164 1.07463H22.0895C22.4192 1.07463 22.6865 1.34192 22.6865 1.67164V30.4776C22.6865 30.8075 22.4192 31.0746 22.0895 31.0746H17.3134C16.9837 31.0746 16.7164 30.8075 16.7164 30.4776V8.31343M16.7164 1.07463V6V8.31343M16.7164 1.07463L10.1492 5.75857M16.7164 8.31343L6.56712 15.5336M10.1492 5.75857L6.56712 8.31343M10.1492 5.75857L6.56712 1.07463M6.56712 8.31343V13.1269V15.5336M6.56712 8.31343V1.07463M6.56712 15.5336V17.9403V30.4776C6.56712 30.8075 6.29983 31.0746 5.9701 31.0746H0.895477C0.565754 31.0746 0.298462 30.8075 0.298462 30.4776V1.67164C0.298462 1.34192 0.565754 1.07463 0.895477 1.07463H6.56712" stroke="white" stroke-width="0.298507"/>
<path d="M39.2537 4.80597H24.179C23.8493 4.80597 23.582 5.07325 23.582 5.40299V10.3284C23.582 10.6581 23.8493 10.9254 24.179 10.9254H39.2537C39.5835 10.9254 39.8507 10.6581 39.8507 10.3284V5.40299C39.8507 5.07325 39.5835 4.80597 39.2537 4.80597Z" fill="white"/>
<path d="M39.2537 31.0746H24.179C23.8493 31.0746 23.582 30.8075 23.582 30.4776V25.2537C23.582 24.924 23.8493 24.6567 24.179 24.6567H33.7313V18.3881C33.7313 18.0583 33.9984 17.791 34.3283 17.791H39.2537C39.5835 17.791 39.8507 18.0583 39.8507 18.3881V24.6567V30.4776C39.8507 30.8075 39.5835 31.0746 39.2537 31.0746Z" fill="white"/>
<path d="M39.8507 24.6567V30.4776C39.8507 30.8075 39.5835 31.0746 39.2537 31.0746H24.179C23.8493 31.0746 23.582 30.8075 23.582 30.4776V25.2537C23.582 24.924 23.8493 24.6567 24.179 24.6567H33.7313M39.8507 24.6567V18.3881C39.8507 18.0583 39.5835 17.791 39.2537 17.791H34.3283C33.9984 17.791 33.7313 18.0583 33.7313 18.3881V24.6567M39.8507 24.6567H33.7313M24.179 10.9254H39.2537C39.5835 10.9254 39.8507 10.6581 39.8507 10.3284V5.40299C39.8507 5.07325 39.5835 4.80597 39.2537 4.80597H24.179C23.8493 4.80597 23.582 5.07325 23.582 5.40299V10.3284C23.582 10.6581 23.8493 10.9254 24.179 10.9254Z" stroke="white" stroke-width="0.298507"/>
</svg>
